<svg version="1.1" xmlns="http://www.w3.org/2000/svg">
	<symbol id="mail" viewBox="0 0 24 24" rel="img">
		<title>Mail</title>
		<path d="M0 3v18h24v-18h-24zm21.518 2l-9.518 7.713-9.518-7.713h19.036zm-19.518 14v-11.817l10 8.104 10-8.104v11.817h-20z"/>
	</symbol>
	<symbol id="message" viewBox="0 0 24 24" rel="img">
		<title>Message</title>
		<path d="M24 1h-24v16.981h4v5.019l7-5.019h13z"/>
	</symbol>
	<symbol id="arrow-up" viewBox="0 0 24 24" rel="img">
		<title>Arrow Up</title>
		<path d="M7.41 15.41L12 10.83l4.59 4.58L18 14l-6-6-6 6z"/>
	</symbol>
	<symbol id="arrow-right" viewBox="0 0 24 24" rel="img">
		<title>Arrow Right</title>
		<path d="M8.59 16.34l4.58-4.59-4.58-4.59L10 5.75l6 6-6 6z"/>
	</symbol>
	<symbol id="arrow-down" viewBox="0 0 24 24" rel="img">
		<title>Arrow Down</title>
		<path d="M7.41 7.84L12 12.42l4.59-4.58L18 9.25l-6 6-6-6z"/>
	</symbol>
	<symbol id="arrow-left" viewBox="0 0 24 24" rel="img">
		<title>Arrow Left</title>
		<path d="M15.41 16.09l-4.58-4.59 4.58-4.59L14 5.5l-6 6 6 6z"/>
	</symbol>
  <symbol id="reorder" viewBox="0 0 24 24" rel="img">
    <title>Reorder</title>
    <path d="M3 15h18v-2H3v2zm0 4h18v-2H3v2zm0-8h18V9H3v2zm0-6v2h18V5H3z"/>
  </symbol>
	<symbol id="checkmark" viewBox="0 0 24 24" rel="img">
		<title>Checkmark</title>
		<path d="M9 16.17L4.83 12l-1.42 1.41L9 19 21 7l-1.41-1.41z"/>
	</symbol>
  <symbol id="menu" viewBox="0 0 24 24" rel="img">
    <title>Menu</title>
    <path d="M12 8c1.1 0 2-.9 2-2s-.9-2-2-2-2 .9-2 2 .9 2 2 2zm0 2c-1.1 0-2 .9-2 2s.9 2 2 2 2-.9 2-2-.9-2-2-2zm0 6c-1.1 0-2 .9-2 2s.9 2 2 2 2-.9 2-2-.9-2-2-2z"/>
  </symbol>
  <symbol id="clear" viewBox="0 0 24 24" rel="img">
    <title>Clear</title>
    <path d="M22 3H7c-.69 0-1.23.35-1.59.88L0 12l5.41 8.11c.36.53.9.89 1.59.89h15c1.1 0 2-.9 2-2V5c0-1.1-.9-2-2-2zm-3 12.59L17.59 17 14 13.41 10.41 17 9 15.59 12.59 12 9 8.41 10.41 7 14 10.59 17.59 7 19 8.41 15.41 12 19 15.59z"/>
  </symbol>
	<symbol id="close" viewBox="0 0 24 24" rel="img">
		<title>Close</title>
		<path d="M23.954 21.03l-9.184-9.095 9.092-9.174-2.832-2.807-9.09 9.179-9.176-9.088-2.81 2.81 9.186 9.105-9.095 9.184 2.81 2.81 9.112-9.192 9.18 9.1z"/>
	</symbol>
  <symbol id="next" viewBox="0 0 24 24" rel="img">
    <title>Next</title>
    <path d="M6 18l8.5-6L6 6v12zM16 6v12h2V6h-2z"/>
  </symbol>
  <symbol id="delete" viewBox="0 0 24 24" rel="img">
		<title>Delete</title>
    <path d="M12 2C6.47 2 2 6.47 2 12s4.47 10 10 10 10-4.47 10-10S17.53 2 12 2zm5 13.59L15.59 17 12 13.41 8.41 17 7 15.59 10.59 12 7 8.41 8.41 7 12 10.59 15.59 7 17 8.41 13.41 12 17 15.59z"/>
  </symbol>
  <symbol id="plus" viewBox="0 0 24 24" rel="img">
    <title>Add</title>
    <path d="M19 13h-6v6h-2v-6H5v-2h6V5h2v6h6v2z"/>
  </symbol>
  <symbol id="duplicate" viewBox="0 0 24 24" rel="img">
    <title>Duplicate</title>
    <path d="M16 1H4c-1.1 0-2 .9-2 2v14h2V3h12V1zm3 4H8c-1.1 0-2 .9-2 2v14c0 1.1.9 2 2 2h11c1.1 0 2-.9 2-2V7c0-1.1-.9-2-2-2zm0 16H8V7h11v14z"/>
  </symbol>
  <symbol id="edit" viewBox="0 0 24 24" rel="img">
    <title>Edit</title>
    <path d="M3 17.25V21h3.75L17.81 9.94l-3.75-3.75L3 17.25zM20.71 7.04c.39-.39.39-1.02 0-1.41l-2.34-2.34c-.39-.39-1.02-.39-1.41 0l-1.83 1.83 3.75 3.75 1.83-1.83z"/>
  </symbol>
	<symbol id="save" viewBox="0 0 24 24" rel="img">
		<title>Save</title>
		<path d="M17 3H5c-1.11 0-2 .9-2 2v14c0 1.1.89 2 2 2h14c1.1 0 2-.9 2-2V7l-4-4zm-5 16c-1.66 0-3-1.34-3-3s1.34-3 3-3 3 1.34 3 3-1.34 3-3 3zm3-10H5V5h10v4z"/>
	</symbol>
	<symbol id="import" viewBox="0 0 24 24" rel="img">
		<title>Import</title>
		<path d="M9 16h6v-6h4l-7-7-7 7h4zm-4 2h14v2H5z"/>
	</symbol>
	<symbol id="help" viewBox="0 0 24 24" rel="img">
		<title>Help</title>
		<path d="M12 2C6.48 2 2 6.48 2 12s4.48 10 10 10 10-4.48 10-10S17.52 2 12 2zm1 17h-2v-2h2v2zm2.07-7.75l-.9.92C13.45 12.9 13 13.5 13 15h-2v-.5c0-1.1.45-2.1 1.17-2.83l1.24-1.26c.37-.36.59-.86.59-1.41 0-1.1-.9-2-2-2s-2 .9-2 2H8c0-2.21 1.79-4 4-4s4 1.79 4 4c0 .88-.36 1.68-.93 2.25z"/>
	</symbol>
  <symbol id="trash" viewBox="0 0 24 24" rel="img">
    <title>Trash</title>
    <path d="M6 19c0 1.1.9 2 2 2h8c1.1 0 2-.9 2-2V7H6v12zM19 4h-3.5l-1-1h-5l-1 1H5v2h14V4z"/>
  </symbol>
	<symbol id="search" viewBox="0 0 24 24" rel="img">
		<title>Search</title>
		<path d="M15.5 14h-.79l-.28-.27C15.41 12.59 16 11.11 16 9.5 16 5.91 13.09 3 9.5 3S3 5.91 3 9.5 5.91 16 9.5 16c1.61 0 3.09-.59 4.23-1.57l.27.28v.79l5 4.99L20.49 19l-4.99-5zm-6 0C7.01 14 5 11.99 5 9.5S7.01 5 9.5 5 14 7.01 14 9.5 11.99 14 9.5 14z"/>
	</symbol>
  <symbol id="dice" viewBox="0 0 24 24" rel="img">
    <title>Dice</title>
    <path d="M19 3H5c-1.1 0-2 .9-2 2v14c0 1.1.9 2 2 2h14c1.1 0 2-.9 2-2V5c0-1.1-.9-2-2-2zM7.5 18c-.83 0-1.5-.67-1.5-1.5S6.67 15 7.5 15s1.5.67 1.5 1.5S8.33 18 7.5 18zm0-9C6.67 9 6 8.33 6 7.5S6.67 6 7.5 6 9 6.67 9 7.5 8.33 9 7.5 9zm4.5 4.5c-.83 0-1.5-.67-1.5-1.5s.67-1.5 1.5-1.5 1.5.67 1.5 1.5-.67 1.5-1.5 1.5zm4.5 4.5c-.83 0-1.5-.67-1.5-1.5s.67-1.5 1.5-1.5 1.5.67 1.5 1.5-.67 1.5-1.5 1.5zm0-9c-.83 0-1.5-.67-1.5-1.5S15.67 6 16.5 6s1.5.67 1.5 1.5S17.33 9 16.5 9z"/>
  </symbol>
  <symbol id="health" viewBox="0 0 24 24" rel="img">
    <title>Health</title>
    <path d="M12 21.35l-1.45-1.32C5.4 15.36 2 12.28 2 8.5 2 5.42 4.42 3 7.5 3c1.74 0 3.41.81 4.5 2.09C13.09 3.81 14.76 3 16.5 3 19.58 3 22 5.42 22 8.5c0 3.78-3.4 6.86-8.55 11.54L12 21.35z"/>
  </symbol>
  <symbol id="armor" viewBox="0 0 24 24" rel="img">
    <title>Armor</title>
    <path d="M12 1L3 5v6c0 5.55 3.84 10.74 9 12 5.16-1.26 9-6.45 9-12V5l-9-4zm0 10.99h7c-.53 4.12-3.28 7.79-7 8.94V12H5V6.3l7-3.11v8.8z"/>
  </symbol>
  <symbol id="initiative" viewBox="0 0 24 24" rel="img">
    <title>Initiative</title>
    <path d="M16.49 15.5v-1.75L14 16.25l2.49 2.5V17H22v-1.5z"/>
    <path d="M19.51 19.75H14v1.5h5.51V23L22 20.5 19.51 18z"/>
    <path d="M9.5 5.5c1.1 0 2-.9 2-2s-.9-2-2-2-2 .9-2 2 .9 2 2 2zM5.75 8.9L3 23h2.1l1.75-8L9 17v6h2v-7.55L8.95 13.4l.6-3C10.85 12 12.8 13 15 13v-2c-1.85 0-3.45-1-4.35-2.45l-.95-1.6C9.35 6.35 8.7 6 8 6c-.25 0-.5.05-.75.15L2 8.3V13h2V9.65l1.75-.75"/>
  </symbol>
  <symbol id="barbarian" viewBox="0 0 100 100" rel="img">
    <title>Barbarian</title>
    <path d="M28.76,8.16A61.9,61.9,0,0,1,35.57,0c0,1.53-.36,3.05-.26,4.58.3,1.8.19,3.7,1,5.38.28.65.39,1.46,1,1.86a28.85,28.85,0,0,0,2.7,2,12.31,12.31,0,0,0,3.92,1.08c.18.69.32,1.4.5,2.09l1.06.18c.11-1.09.13-2.19.26-3.28.93-.2,1.31-1.13,1.87-1.8.73-.84.7-2,1-3Q50.05,9,51.43,9c.33,1,.3,2.2,1,3,.56.67.94,1.6,1.87,1.8.13,1.09.16,2.19.26,3.28L55.65,17c.19-.69.32-1.4.5-2.09a5.67,5.67,0,0,0,2-.36,9,9,0,0,0,3-1.4c.93-.86,2.33-1.39,2.57-2.78a15.93,15.93,0,0,0,1-5.08c.3-1.76-.17-3.51-.18-5.27a65,65,0,0,1,7.68,9.42c.74,1.47,1.53,2.92,2.21,4.43C75,16,75.49,18.21,76,20.39c.23,1.6.34,3.22.52,4.83-1.73.68-3.5,1.22-5.22,1.9,1.76.35,3.52.65,5.28,1-.18,2-.29,3.92-.54,5.87-.66,2.37-1.29,4.75-2,7.1-1.11,2.09-2.22,4.18-3.42,6.22-2,2.31-3.93,4.77-6.1,6.95-.14-1.65.74-3.2.48-4.85-.17-1.26-.14-2.56-.41-3.81-.46-1.19-.85-2.4-1.37-3.56-.69-1-1.43-2-2.17-3-1.36-1-3.1-.69-4.66-.71-.22-.41-.45-.81-.69-1.21a15.9,15.9,0,0,0-1.82,3.67c-.3.74-1.15,1.17-1.3,2,.06,4.69.16,9.37.21,14.06-.09,1,1,1.41,1.55,2.09-.31.66-1,1.2-1,2-.08,1.58-.27,3.16-.23,4.74-.06,10.34-.09,20.67-.15,31,0,.57.44,1,.73,1.39a5.57,5.57,0,0,0-1.21.34c-.38.39-.49,1-.9,1.35a6.1,6.1,0,0,1-2.88.09c-.76-.09-.75-1.09-1.29-1.48a7.66,7.66,0,0,0-1.14-.3c.28-.44.76-.82.72-1.39Q47,82.29,46.93,67.86a65.81,65.81,0,0,0-.3-7.3,9.27,9.27,0,0,0-.9-1.59c.54-.68,1.65-1.08,1.55-2.09,0-4.69.15-9.37.21-14.06-.15-.81-1-1.24-1.3-2a15.51,15.51,0,0,0-1.82-3.67c-.36.48-.5,1.41-1.28,1.23-1.59-.1-3.73-.21-4.62,1.43a12.38,12.38,0,0,0-2,3.23c-.4,1.26-1.12,2.45-1.14,3.81-.07,1.19-.26,2.36-.27,3.55a24,24,0,0,1,.52,3.87c-1.81-1.76-3.33-3.81-5-5.68a22.34,22.34,0,0,1-3.35-5.41c.78-1.86,1.94-3.56,2.77-5.4-1.45.66-2.84,1.46-4.28,2.15-.66-2.71-1.81-5.34-1.89-8.17-.12-1.66-.33-3.32-.4-5,.2-2.08.4-4.16.64-6.23.44-1.83.86-3.67,1.36-5.48,1.44-.16,2.89-.28,4.33-.47-.81-1.28-1.72-2.51-2.54-3.79a11.37,11.37,0,0,1,1.59-2.66"/>
  </symbol>
  <symbol id="bard" viewBox="0 0 100 100" rel="img">
    <title>Bard</title>
    <path d="M47.82.92C48.56.64,49.24.22,50,0c.75.22,1.44.64,2.17.92s1.38,1.15,2,1.73c.4.28.3.8.34,1.22.87.27,1.4-.33,1.83-1a4.79,4.79,0,0,1,.52,1.26A11.3,11.3,0,0,1,56,5.74a.74.74,0,0,1-.41-1.06,5.91,5.91,0,0,0-1,0c0,.58,0,1.16.06,1.73a14.1,14.1,0,0,0,1.72,0c.32-.27.49-.69.83-.94.16.51.74,1.09.33,1.61a13.56,13.56,0,0,1-.73,1.22.74.74,0,0,1-.4-1.06,11.1,11.1,0,0,0-1.73,0c0,.67,0,1.35.08,2,.73.19.92-.64,1.39-1,.16.52.74,1.09.32,1.62-.24.4-.45.83-.72,1.21-.49-.17-.56-.61-.41-1.06l-.56,0c0,.68,0,1.36.07,2,.82.27,1.23-.44,1.65-1A4.5,4.5,0,0,1,57,12.3a10.45,10.45,0,0,1-.9,1.59.76.76,0,0,1-.4-1.07,8.23,8.23,0,0,0-.86,0c0,.56.19,1.19-.15,1.69-.64,1-1.26,2.11-1.9,3.16a2.24,2.24,0,0,0-.12,1.26Q53.31,37,53.93,55.19c0,.52.41.9.65,1.32,1.67,2.62,3.41,5.21,5,7.86q2,5.28,3.86,10.59C64,77.83,64.53,80.72,65,83.6c-.25,2.55-.55,5.1-.91,7.63-1,2.13-2.2,4.2-3.26,6.32-.2.5-.76.61-1.19.85a7.61,7.61,0,0,1-2.13.88c-1.5.22-3,.52-4.5.7q-3,0-6,0c-1.48-.17-3-.47-4.43-.69a7.33,7.33,0,0,1-2.27-.92c-.38-.22-.89-.32-1.09-.76-.89-1.74-1.82-3.47-2.72-5.22a4.22,4.22,0,0,1-.67-1.66c-.25-2.41-.63-4.81-.81-7.22.49-2.86,1-5.71,1.52-8.55q1.89-5.31,3.86-10.59c1.62-2.63,3.34-5.2,5-7.8.28-.47.73-.9.7-1.48.41-12.35.86-24.7,1.26-37a34.45,34.45,0,0,0-2-3.49c-.39-.52-.16-1.18-.19-1.76a8.17,8.17,0,0,0-.86,0,.76.76,0,0,1-.41,1.07,11.94,11.94,0,0,1-.9-1.6,6.22,6.22,0,0,1,.5-1.23c.49.48.84,1.25,1.68,1,.05-.68.07-1.36.08-2l-.56,0a.75.75,0,0,1-.41,1.06,11.82,11.82,0,0,1-.9-1.59,6.27,6.27,0,0,1,.49-1.24c.48.34.66,1.17,1.39,1,0-.68.07-1.36.08-2a11,11,0,0,0-1.72,0,.75.75,0,0,1-.41,1.06,11.3,11.3,0,0,1-.89-1.59,6.27,6.27,0,0,1,.49-1.24c.34.25.51.67.84.94a13.92,13.92,0,0,0,1.71,0c0-.57.06-1.15.07-1.73a6,6,0,0,0-1,0A.75.75,0,0,1,44,5.74a11.37,11.37,0,0,1-.9-1.59,5.75,5.75,0,0,1,.5-1.24c.34.25.51.67.83.93a3.89,3.89,0,0,0,1,0c0-.42,0-.94.34-1.22.68-.58,1.17-1.43,2-1.73m1.54,70.7a5.3,5.3,0,0,0-4,2.68,5.32,5.32,0,1,0,4-2.68m-9.61,6.75a7.26,7.26,0,0,0,.71,3.93c1.32,1.7,3.34,2.91,4.1,5a4.32,4.32,0,0,1-.38,2.88,2.24,2.24,0,0,1-2.57.59,2.08,2.08,0,0,0-.15-.86c-.51-.26-1.39-.09-1.46.57a1.76,1.76,0,0,0,1.86,1.39,3.39,3.39,0,0,0,3.54-2.3,6.09,6.09,0,0,0-.72-4c-1.06-1.42-2.76-2.23-3.75-3.72a5.67,5.67,0,0,1,.4-6.56c0,.16,0,.32.07.49.19-.4.38-.79.53-1.2a4.38,4.38,0,0,0-2.18,3.82m18.51-3.82a10.67,10.67,0,0,0,.53,1.2c0-.16.05-.33.07-.49a5.79,5.79,0,0,1,1.19,3.88A3.57,3.57,0,0,1,59.13,82c-1,1.43-2.66,2.2-3.66,3.62a6.16,6.16,0,0,0-.68,4,3.39,3.39,0,0,0,3.54,2.3,1.74,1.74,0,0,0,1.86-1.48,1.07,1.07,0,0,0-1.41-.52c-.24.22-.15.6-.2.9-1,.32-2.32.18-2.74-.9a3.84,3.84,0,0,1,.23-3.49c1-1.62,2.58-2.67,3.7-4.15a7.67,7.67,0,0,0,.67-4,4.38,4.38,0,0,0-2.18-3.72M44.48,94.28c0,.77,0,1.54,0,2.32q5.48,0,10.93,0c0-.78,0-1.55,0-2.32q-5.46,0-10.93,0"/>
  </symbol>
  <symbol id="cleric" viewBox="0 0 100 100" rel="img">
    <title>Cleric</title>
    <path d="M48.28,13.31C48.92,8.89,49.33,4.42,50,0c.67,4.42,1.08,8.89,1.72,13.31.72,1.85,1.59,3.64,2.35,5.47.2.6.89.7,1.37,1a25.13,25.13,0,0,0,3.16,1.37c1.55.26,3.09.63,4.64.84,1.5-.37,2.91-1,4.4-1.45-.41,2-.93,4-1.31,6,.1,1.26.49,2.48.7,3.73.18,1.87,1.62,3.24,2.49,4.81,1.2,1,2.64,1.77,3.93,2.69,1.7,1.42,4,1.26,6.06,1.89-1.43,1-3.28,1.33-4.49,2.65-1.52,1.43-3.13,2.77-4.59,4.25-1.07,2.6-2.09,5.23-3.09,7.86-.09,1.79,0,3.6,0,5.4.29,1.8.83,3.56,1.16,5.35-2.37-3.17-4.61-6.45-6.92-9.66,6.62-6.58,7.44-17.89,2.14-25.5a16.14,16.14,0,0,0-10.34-6.9,25.27,25.27,0,0,0-4.52-.22,15.14,15.14,0,0,0-9.25,3.44A18.84,18.84,0,0,0,33.3,36.78a20.31,20.31,0,0,0,5.09,18.71c-2.31,3.21-4.55,6.49-6.92,9.66.33-1.79.87-3.55,1.16-5.35,0-1.8.12-3.61,0-5.4-1-2.63-2-5.26-3.09-7.86-1.46-1.48-3.07-2.82-4.59-4.25-1.21-1.32-3.06-1.66-4.49-2.65,2-.63,4.36-.47,6.06-1.89,1.26-.88,2.6-1.65,3.83-2.57.81-1.19,1.61-2.4,2.31-3.65.35-1.63.73-3.26,1-4.9-.35-2.06-.91-4.08-1.32-6.13,1.46.42,2.85,1,4.31,1.44,1.34-.11,2.66-.49,4-.69s2.71-1,4.05-1.58c.44-.23,1-.35,1.22-.89.76-1.83,1.63-3.62,2.35-5.47"/>
    <path d="M49.44,30.71c.22-.89.32-1.82.56-2.71.24.89.34,1.82.56,2.71a17.6,17.6,0,0,1,3.71,1c.9-.72,1.48-1.77,2.33-2.55-.24,1.15-.71,2.22-1,3.34a14,14,0,0,1,2.83,2.86c1.15-.37,2.28-.81,3.45-1.09-.81.91-1.83,1.6-2.68,2.48a14.85,14.85,0,0,1,.91,3.73,24,24,0,0,1,3.54.84c-1.2.23-2.41.46-3.6.76a12.16,12.16,0,0,1-1,3.51c.86,1,2,1.77,2.91,2.75-1.3-.35-2.55-.86-3.85-1.19a13.47,13.47,0,0,1-2.65,2.52c.34,1.22.9,2.39,1.14,3.63-.94-.84-1.56-2-2.53-2.79a4.32,4.32,0,0,0-1.53.39c-.09,1.66,0,3.32-.08,5,0,.59-.86.8-.75,1.43q.24,16.2.48,32.41c-.08,1.58,1.23,2.84,1.16,4.43,0,1.35.1,2.7.09,4.06-.7.49-1.45.91-2.15,1.41a2.07,2.07,0,0,1-2.52,0c-.7-.5-1.45-.92-2.15-1.41,0-1.36.08-2.71.09-4.06-.07-1.59,1.24-2.85,1.16-4.43.15-10.84.33-21.68.47-32.52,0-.57-.73-.76-.74-1.32-.07-1.65,0-3.31-.08-5A4.32,4.32,0,0,0,46,50.47c-1,.79-1.58,2-2.53,2.79.24-1.24.8-2.41,1.14-3.63a13.15,13.15,0,0,1-2.64-2.52c-1.31.33-2.56.84-3.86,1.19.91-1,2-1.73,2.92-2.75A11.87,11.87,0,0,1,40,42c-1.19-.3-2.4-.53-3.6-.76a24,24,0,0,1,3.54-.84,15,15,0,0,1,.91-3.74c-.85-.87-1.87-1.56-2.68-2.47,1.17.28,2.3.72,3.45,1.09a14,14,0,0,1,2.83-2.86c-.33-1.12-.8-2.19-1-3.34.84.8,1.46,1.81,2.33,2.58a14.85,14.85,0,0,1,3.71-1"/>
  </symbol>
  <symbol id="druid" viewBox="0 0 100 100" rel="img">
    <title>Druid</title>
    <path d="M37.15,77.64a1.71,1.71,0,0,1-1.49-.15,16.45,16.45,0,0,1-4.38-2.64,9.42,9.42,0,0,0-.87-.51A1.9,1.9,0,0,1,30,74c-.64-.74-.58-1.09.25-1.58l.27-.18a2.74,2.74,0,0,0-1.68-.53,4.91,4.91,0,0,1-.94,0,16.65,16.65,0,0,1-2.22-.4,3.51,3.51,0,0,1-2.45-1.75,1.52,1.52,0,0,1-.18-.8,2.09,2.09,0,0,1,1.36-2c.32-.11.61-.27,1-.46-.4-.36-.72-.68-1.07-1-.78-.63-1.6-1.19-2.34-1.86a6.78,6.78,0,0,1-2-3.38,3.77,3.77,0,0,1-.09-2.18,6.55,6.55,0,0,1,.42-1,.58.58,0,0,1,.4-.23,9.47,9.47,0,0,1,1.3-.09c.45,0,.68-.16.59-.57a13.29,13.29,0,0,1,.46-5.71,9.83,9.83,0,0,1,1.14-3.06,1.7,1.7,0,0,1,1.19-.81c1.46-.31,2.34.57,3.15,1.54a8.27,8.27,0,0,1,.68,1.2c.4.71.81,1.41,1.19,2.13.17.32.28.66.44,1a2.41,2.41,0,0,0,.33.5c.34.39.57.37.83,0a4.31,4.31,0,0,0,.26-.47A1.24,1.24,0,0,1,34.51,52,4.6,4.6,0,0,1,35.36,54a5.56,5.56,0,0,1,.18,2.66,24.9,24.9,0,0,0-.4,2.59,1.18,1.18,0,0,0,.07.62c.19.42.34.45.75.24s.59-.34.9-.46a1.4,1.4,0,0,1,1.9,1,4.28,4.28,0,0,1-1,3.9c-.21.25-.44.48-.62.74a2.27,2.27,0,0,0-.22.53l2.1-.44c.38-.08.52.05.62.42a2.65,2.65,0,0,1-.1,1.53,5.14,5.14,0,0,1-2,3,2.13,2.13,0,0,0-.31.29c-.32.38-.26.71.22.79s.47.3.48.62,0,.56,0,.83a3.31,3.31,0,0,0,.46,1.72,2.65,2.65,0,0,1-.09,2.73l.51.44a.84.84,0,0,0,.33,1.08,7.23,7.23,0,0,0,3.34,2c0-.84,0-1.67,0-2.5s-.09-1.83-.11-2.75c0-2.17-.08-4.35-.12-6.52,0-.5-.14-1-.11-1.49.1-1.81,0-3.6,0-5.4,0-2.91.1-5.81.16-8.72a.87.87,0,0,1,.12-.45,17.66,17.66,0,0,1,1.16-1.43,6.25,6.25,0,0,1,.88-.66c0-.93-.06-2-.13-3.07a1.19,1.19,0,0,0-.68-.93c-.81-.48-1.6-1-2.43-1.41a24.54,24.54,0,0,1-4-2.52c-1.12-.9-2.25-1.8-3.27-2.8a17.43,17.43,0,0,1-3.11-4.3,22.62,22.62,0,0,1-2-5.48,19.24,19.24,0,0,1-.33-5.14A22.19,22.19,0,0,1,30,17.57,25.78,25.78,0,0,1,33.8,11a29,29,0,0,1,6-5.68,37.57,37.57,0,0,1,4-2.41A28.49,28.49,0,0,1,49.06.94a26.75,26.75,0,0,1,3.7-.65A32.87,32.87,0,0,1,58.87,0a55.81,55.81,0,0,1,8,.84,32.71,32.71,0,0,1,3.93,1A18.09,18.09,0,0,1,73.11,3c.8.4,1.59.83,2.39,1.2a10.39,10.39,0,0,1,3.38,2.53c.42.48.91.9,1.37,1.35l0,.14A7.77,7.77,0,0,1,79,8.14c-1.3-.3-2.58-.65-3.88-1s-2.41-.54-3.62-.81c-1.43-.32-2.63-.47-4.08-.69A24.58,24.58,0,0,0,64,5.49a16.14,16.14,0,0,1-1.65.11c-1.68.12-3.27.18-4.94.35a36.62,36.62,0,0,0-3.87.73,26.59,26.59,0,0,0-3.4.9,25.38,25.38,0,0,0-3.87,1.67A23.35,23.35,0,0,0,42,12.2a19.72,19.72,0,0,0-3.19,3.74,21.84,21.84,0,0,0-2.81,6,15.21,15.21,0,0,0-.64,3.88,13.79,13.79,0,0,0,.36,3.32,17.13,17.13,0,0,0,3.76,7.38A18.43,18.43,0,0,0,42,38.78c1.21,1,2.46,1.91,3.68,2.88a1.11,1.11,0,0,0,.87.28c.52-.06,1,0,1.56,0s.81.25,1,.77a3.77,3.77,0,0,1,.14,2c-.11,1.07-.18,2.15-.28,3.22s-.18,1.83-.25,2.65a7.83,7.83,0,0,1,1.13,1.07,2.16,2.16,0,0,1,.41,1.14,26.31,26.31,0,0,1-.14,2.81,11,11,0,0,0,0,3,11.22,11.22,0,0,1,0,2.09c0,1.28,0,2.55,0,3.83,0,.3,0,.6,0,.9,0,.8-.09,1.6-.11,2.4C50,70.06,50,72.27,50,74.47a1.85,1.85,0,0,0,.17.85,2.72,2.72,0,0,1,.06,1.18c0,.78-.11,1.55-.1,2.33,0,1.09.06,2.19.11,3.29,0,.5.11,1,.11,1.49,0,.77-.08,1.55-.07,2.32s.08,1.82.13,2.87A12.75,12.75,0,0,0,52,87.5a7.41,7.41,0,0,0,1.61-2.29c0-.14.22-.23.28-.37a.8.8,0,0,0,0-.48,2.27,2.27,0,0,1,.22-2.11,3.26,3.26,0,0,0,.41-2,3.15,3.15,0,0,1,0-.53.48.48,0,0,1,.44-.53c.52-.13.58-.41.22-.81a1.54,1.54,0,0,0-.26-.25,5.37,5.37,0,0,1-2.14-3.53s0-.08,0-.12c-.17-1,.14-1.36,1.12-1.23a13.55,13.55,0,0,1,1.57.42c.2-.26,0-.45-.18-.64A15.49,15.49,0,0,1,54,71.32a3.9,3.9,0,0,1-.33-2.9,1.52,1.52,0,0,1,2.37-.79c.08.05.15.14.24.17s.55.24.7.15a.76.76,0,0,0,.33-.88,8.4,8.4,0,0,1-.27-1.1,18.4,18.4,0,0,1-.24-2.08,7.47,7.47,0,0,1,.86-3.68,2.09,2.09,0,0,1,.7-.72c.8-.51,1.31-.36,1.77.47.1.17.18.35.28.52.28.46.53.48.86.05a6.24,6.24,0,0,0,.54-.93c.21-.41.39-.83.6-1.23.45-.82.91-1.64,1.37-2.45a4.6,4.6,0,0,1,2.32-1.8,2.14,2.14,0,0,1,2.12.87,10.23,10.23,0,0,1,.92,2.13,32.73,32.73,0,0,1,.78,4,11.54,11.54,0,0,1-.06,2.49c-.05.6,0,.71.65.68a4,4,0,0,1,.6,0c.95.08,1.23.37,1.46,1.32a4.63,4.63,0,0,1-.19,2.53,5.56,5.56,0,0,1-1.2,2.23c-.62.65-1.3,1.24-2,1.83-.51.44-1,.84-1.58,1.26-.19.14-.4.26-.6.39l.12.21c.31.14.63.31.95.42a2.11,2.11,0,0,1,1.33,1.83,1.82,1.82,0,0,1-.85,1.81,4.16,4.16,0,0,1-2.52,1,7.86,7.86,0,0,0-1.62.36,1.53,1.53,0,0,1-.64,0A3.27,3.27,0,0,0,62,80c.28.18.46.32.66.42a.56.56,0,0,1,.26.8,2.56,2.56,0,0,1-1.24,1.25,5.52,5.52,0,0,0-.7.44,17.17,17.17,0,0,1-4.49,2.59c-.66.27-.88.18-1.43-.4l-1.35,2.09c-.22.06-.41.06-.51.15-.83.81-1.65,1.63-2.47,2.46a1.05,1.05,0,0,0-.3.91,7.36,7.36,0,0,0,.49,2.56A3.11,3.11,0,0,1,50.92,95a11.18,11.18,0,0,1-.57,2.78,2.91,2.91,0,0,1-3.11,2,3.51,3.51,0,0,0-1.39.14,3.82,3.82,0,0,1-1.78,0c-.28-.06-.55-.45-.71-.74a2.28,2.28,0,0,0-1.25-1.28A6.41,6.41,0,0,1,40,96.27a.79.79,0,0,1-.15-.54A31.36,31.36,0,0,1,40,92.37c.13-.93.27-2,1.37-2.38a4.26,4.26,0,0,0,1-2c.07-1.23,0-2.47.06-3.71a9.61,9.61,0,0,1,.07-1.19c.1-.65,0-.76-.54-1.15a15.6,15.6,0,0,1-1.39-1.19c-.06-.06-.1-.14-.17-.17-1.08-.59-1.72-1.67-2.69-2.37A3.89,3.89,0,0,1,37.15,77.64Zm18.18,6.89c-.06,0-.09-.08-.14-.09s-.06,0-.06.08a.43.43,0,0,0,0,.13Z"/>
  </symbol>
  <symbol id="fighter" viewBox="0 0 100 100" rel="img">
    <title>Fighter</title>
    <path d="M2.3,4.44c.53-.33,1-.72,1.58-1A7.65,7.65,0,0,1,5.59,6.67C6.94,8,8.62,9,9.91,10.46c3,3.09,5.94,6.2,8.94,9.26.14-.46.22-.95.32-1.42.57-.07,1.32.26,1.74-.28a54.93,54.93,0,0,0,3.75-4.6c.4-.67,1.25-.64,1.93-.76a15,15,0,0,1,.64,3.05c-.95.19-2.23-.24-2.86.71-.93,1.17-2,2.21-2.9,3.42a12.47,12.47,0,0,0,1,2.25c.43-.09.86-.21,1.29-.32,1.86,2.13,3.87,4.13,5.8,6.2.31.29.26.73.27,1.12,0,3,0,6,0,9.05C26,34.52,22.13,30.88,18.34,27.2c.08-.41.16-.83.22-1.25a12.86,12.86,0,0,0-2.21-1c-1.21.9-2.25,2-3.43,2.93-.94.64-.47,1.91-.7,2.85a28.11,28.11,0,0,1-3-.57c0-.72,0-1.62.75-2a53.33,53.33,0,0,0,4.59-3.76c.51-.42.18-1.12.2-1.67a6.86,6.86,0,0,1,1.43-.3c-.13-.39-.5-.6-.77-.88-2.8-2.69-5.58-5.4-8.37-8.09A29.2,29.2,0,0,1,4.32,10.3C3.82,9.74,3.44,9,2.63,8.82A5.28,5.28,0,0,1,0,7.32C.67,6.3,1.17,5,2.3,4.44"/>
    <path d="M81.18,10.12c.26-.22.49-.46.75-.69.86.73,1.62,1.57,2.41,2.38-.89.74-1.64,2.39-.47,3.2a21.07,21.07,0,0,0,9.45,6.09c1.15.3,2.3.62,3.47.85s2.13-.2,3.21-.11a39,39,0,0,1-5.42,10.29,33.14,33.14,0,0,1-4.26,4.2c-2.66,2-5.15,4.35-8.17,5.82-2.15.59-4.23,1.53-6.47,1.66C77.82,42,78.94,39.42,80.14,37a17.32,17.32,0,0,0-.45-8.72c-1.58-1.92-2.81-4.11-4.45-6-.7.56-1.65.56-2.35,1.08-3,2.89-5.82,5.89-8.81,8.74,0-1.47,0-2.94,0-4.41,0-.48.37-.78.66-1.09,1.88-1.84,3.72-3.72,5.6-5.57.67-.63.51-1.71,1.17-2.35q4-4,7.94-7.94c.46-.48,1.25-.17,1.75-.6"/>
    <path d="M30.41,18.25c1.45.92,2.74,2.08,4.19,3,2.76,1.53,6.4,2.25,9.24.53,1.65-.43,2.11-2.24,3.08-3.43.7.91,1.21,2,2,2.85.84.52,1.79.87,2.68,1.31A10.34,10.34,0,0,0,57.7,22c2.16-.84,3.81-2.54,5.73-3.77q0,28-.15,56.09c-.31,2.18-.51,4.4-.94,6.57-1.18,1.5-2.49,2.92-3.74,4.38-2.3,2.09-5.05,3.69-7.13,6a49.09,49.09,0,0,0-4.53,5.23,65.48,65.48,0,0,0-6-6.7c-1.82-1.49-3.7-2.89-5.51-4.37-1.23-1.32-4.05-4.7-4.07-5.1-.26-2.16-.61-4.32-.85-6.48,0-13.41,0-26.83-.1-40.23,0-5.14-.06-10.29,0-15.43"/>
    <path d="M14.92,76.38c4.84-5.11,10-9.9,14.91-14.92a38.6,38.6,0,0,1,0,4.81c-2.25,2.37-4.67,4.58-6.85,7Q14.36,81.77,5.83,90.34c-.74.9-.87,2.37-2.12,2.8A3.1,3.1,0,0,1,.59,89.92c.55-1.34,2.2-1.35,3.11-2.31Q9.29,82,14.92,76.38"/>
    <path d="M64.07,64.37S77.77,78.81,84.64,86a10.62,10.62,0,0,1,1.18,1.41c1.7,2.42,3.48,4.8,5.17,7.23-2.46-1.75-4.89-3.54-7.35-5.29A13.25,13.25,0,0,1,82,87.87L64,70.77Z"/>
  </symbol>
  <symbol id="monk" viewBox="0 0 100 100" rel="img">
    <title>Monk</title>
    <path d="M48.91.66C51,.44,53.17.23,55.29,0c.4,3.8.06,7.66.18,11.48-.16,4.36-.61,8.69-.94,13-2.49.69-5,1.29-7.49,2,2.83-.12,5.66-.37,8.5-.56a6,6,0,0,0,.66-2.08c.26-6.88.59-13.76.86-20.64,1.71.37,3.53.48,5.07,1.38,1.19.64,2.43,1.2,3.62,1.84.68.34.49,1.23.55,1.85-.1,2.75-.18,5.49-.35,8.23-.53,3.38-1.08,6.75-1.67,10.12-1.72.11-3.44,0-5.16.13,2.13.46,4.28.8,6.43,1.17.65-5.21,1.49-10.4,2.19-15.6,2.41.19,4.47,1.46,6.56,2.55.07,4.45.54,8.9.19,13.34-.18,3.49-.41,7-.58,10.47A10.68,10.68,0,0,1,73.48,42c-.9,2.68-1.65,5.41-2.59,8.07-1,1.19-2.44,1.87-3.53,2.94-.16.19-.1.47-.11.7q1.27,17.82,2.54,35.65c.12,1.06-.73,1.83-1.17,2.71a4.06,4.06,0,0,1-1.35,1.66q-4.77,2.7-9.52,5.44a4.49,4.49,0,0,1-3.07.75c-1.62-.1-3.35.39-4.89-.34-4-1.64-8.08-3.11-12.06-4.79-1-1.16-2.17-2.51-1.95-4.14.28-12.36.48-24.72.74-37.08.13-.85-.76-1.22-1.29-1.68-3-2.22-5.55-5-8.32-7.5-.37-.37-.88-.72-.9-1.29C25.82,37.05,25.6,31,25.39,25a6.1,6.1,0,0,1,.76-2.44c.22-.51.44-1.18,1.1-1.22,4.82-1,9.63-2.13,14.49-3a52.61,52.61,0,0,1,1.2,6.05c-1.82,2.66-4.45,4.78-5.88,7.73,2.44-2.05,4.67-4.35,7-6.47.3-.31.78-.61.69-1.11-.27-1.84-.55-3.69-.82-5.54-.21-1.17,1.06-1.83,1.87-2.4-.1-4.68-.25-9.34-.37-14C46.59,1.88,47.53.74,48.91.66M72.64,28.83c-1.59,1-3.46.19-5.17.05,1.8.68,3.63,1.31,5.47,1.87.16-1.94.4-3.87.42-5.81-.32,1.28-.28,2.64-.72,3.89M45.37,39.6c2.11,1.72,4.22,3.46,6.36,5.17a1.35,1.35,0,0,1,.61.91c.3,3.45.38,6.92.76,10.36.68-3.27,1-6.6,1.64-9.89a1.08,1.08,0,0,1,.52-.76c1.93-1.29,3.92-2.49,5.81-3.85-2.15.69-4.27,1.5-6.39,2.27-.5.16-1.08.54-1.57.16-2.41-1.67-4.81-3.36-7.23-5l-.51.66"/><path class="cls-1" d="M40.6,4.62a19.77,19.77,0,0,1,3.77-.06c0,3.86,0,7.73-.09,11.6a2.27,2.27,0,0,1-2.33.59c-3,.36-6.06.9-9.1,1.31.37-3.36.87-6.7,1.4-10,0-.53.6-.68,1-.89,1.8-.8,3.56-1.71,5.36-2.51"/>
  </symbol>
  <symbol id="paladin" viewBox="0 0 100 100" rel="img">
    <title>Paladin</title>
    <path d="M28.85,4.16c.3-1.37.32-2.79.6-4.16.06,1.88.27,3.76.21,5.63a28.78,28.78,0,0,1-1.26,5.75c-.68,2.16-1.93,4.19-1.95,6.5a11.14,11.14,0,0,0-.06,3.05c.45,2.92,1.1,5.81,1.77,8.68,1.35,1.76,2.89,3.39,4.32,5.1,1.36.94,3.11.8,4.67.59.55-.44.92-1.07,1.42-1.55.69.58,1.33,1.23,2,1.82a26.69,26.69,0,0,1,2.5-3.46c1.47-1.52,2.93-3.07,4.4-4.59a4.42,4.42,0,0,0,1.21-1.77,14.55,14.55,0,0,0,1.24-3.14h.23a8.93,8.93,0,0,0,.94,2.47,7.2,7.2,0,0,0,1.07,2c1.77,1.82,3.51,3.66,5.27,5.49.76.92,1.32,2,2,2.95.68-.56,1.29-1.19,2-1.76.69.58,1.08,1.8,2.17,1.62,1.55.2,3.52.13,4.48-1.3C69,33,70,31.86,70.92,30.75A3.42,3.42,0,0,0,72,29.08c.56-3,1.38-5.91,1.7-8.93,0-1.32-.17-2.64-.33-3.95-.87-2.85-2.39-5.51-2.68-8.52C70,5.16,70.47,2.57,70.57,0c.25,1.37.28,2.78.58,4.15.56,1.23,1.29,2.37,1.9,3.58.7,1.74,2.71,2.34,3.82,3.74.66,1.38,1.23,2.79,1.88,4.17a2.38,2.38,0,0,1,0,1.6c-.52,2.53-1,5.07-1.52,7.61a3.25,3.25,0,0,0,0,1.58c1-2.67,1.43-5.55,2.24-8.29.49,2.6,1.53,5.07,2.25,7.61A3.48,3.48,0,0,1,82,27.49c-.63,3.65-1.79,11.58-1.86,12,.94-1.54,1.7-3.17,2.66-4.68-.11,2.8-.36,5.6-.54,8.4-.83,2.67-2.74,4.78-4.35,7,1.14-.61,2.22-1.33,3.34-2-.32,1.51-.73,3-1.07,4.51-.08.29-.12.64-.41.79-1.78,1-3.62,1.88-5.38,2.92,1.62-.15,3.2-.52,4.82-.69-.8,1.33-1.72,2.57-2.55,3.88-.19.24-.33.61-.69.61-1.47.09-3,.1-4.43.21a23.16,23.16,0,0,0,3.29,1.39c-1.56.85-3.18,1.59-4.77,2.37-1-1.09-1.91-2.25-2.89-3.35-.49-.47-.21-1.19-.21-1.78,0-1.89.56-3.83,0-5.69-.3-1.29-.58-2.58-.88-3.87a6.08,6.08,0,0,0-3.35,1.34c.32,5.63.69,11.26,1,16.89-.09.8.52,1.41.87,2.06.49.92,1.64,1.05,2.35,1.72.5.5,1.26.39,1.91.49,1.16.2,2.22-.46,3.34-.66-1.7,1.61-3.62,3-5.31,4.62-2.31,3.47-4.57,7-6.87,10.47-1.7,2.38-2.66,5.17-4,7.76A44.75,44.75,0,0,0,54,100c-.18-7-.26-13.94-.41-20.91,0-2.55-.49-5.09-.22-7.64.64-2.3.68-4.75,1.58-7A47.94,47.94,0,0,0,60,55.9c-1.23.05-2.45.18-3.68.25-.72,0-1.2.6-1.76,1-1.11.86-2.31,1.63-3.38,2.54-.52,1-.64,2.18-1.12,3.21-.66-1-.6-2.34-1.29-3.32-1.49-1.1-3-2.25-4.49-3.28-1.39-.25-2.82-.26-4.23-.37a38.63,38.63,0,0,0,4.17,7.21c2,2.35,1.68,5.63,2.53,8.43a26.24,26.24,0,0,1-.2,5.24c-.16,7.74-.26,15.48-.45,23.22-.64-1.64-1-3.4-1.72-5-1.48-2.9-2.55-6-4.46-8.71l-5.91-9a9.07,9.07,0,0,0-1.15-1.59c-1.65-1.44-3.38-2.79-5-4.28,1.12.2,2.18.86,3.34.66.65-.1,1.41,0,1.91-.49.72-.67,1.86-.8,2.35-1.72a7.17,7.17,0,0,0,.83-1.54c.31-5.79.72-11.58,1-17.38a6.58,6.58,0,0,0-3.45-1.37c-.38,1.72-.82,3.43-1.14,5.16,0,1.83.24,3.66.33,5.49,0,.36-.23.62-.44.87-.93,1-1.8,2.14-2.74,3.17-1.59-.78-3.21-1.52-4.77-2.37a23.16,23.16,0,0,0,3.29-1.39c-1.47-.11-3-.12-4.43-.21-.36,0-.5-.37-.69-.61-.83-1.31-1.75-2.55-2.55-3.88,1.62.17,3.2.54,4.82.69-1.76-1-3.6-1.92-5.38-2.92-.29-.15-.33-.5-.41-.79-.34-1.51-.75-3-1.07-4.51,1.12.62,2.2,1.34,3.34,2a49.27,49.27,0,0,1-3.21-4.52c-.42-1-1.19-1.84-1.19-3-.13-2.64-.4-5.28-.49-7.93,1,1.51,1.72,3.14,2.66,4.68-.07-.41-1.31-8.54-1.89-12.31.67-3.05,2-5.94,2.61-9,.81,2.74,1.25,5.62,2.24,8.29a3,3,0,0,0,.05-1.4c-.58-2.85-1.13-5.69-1.7-8.53a2.17,2.17,0,0,1,.35-1.39c.57-1.2,1.06-2.44,1.64-3.64,1.11-1.4,3.12-2,3.82-3.74.61-1.21,1.34-2.35,1.9-3.58"/>
  </symbol>
  <symbol id="ranger" viewBox="0 0 100 100" rel="img">
    <title>Ranger</title>
    <path d="M22.16,3.49A31.88,31.88,0,0,1,22.78,0c.61,1.82,1,3.72,1.68,5.52,1.41,2.79,2.65,5.68,4.16,8.43,3.52,5.25,7,10.55,10.51,15.79,3.38,4,6.78,7.91,10.27,11.79-2.28,2.38-4.48,4.85-6.68,7.31-3.07-2-5.78-4.48-8.63-6.77-1.66-1.19-2.69-3-4-4.51a11.66,11.66,0,0,1-1.73-3.25,91.49,91.49,0,0,1-3.27-9c-.72-3.34-1.73-6.64-2-10.07q-.74-5.86-.94-11.78"/>
    <path d="M77.23,0c.27,1.12.45,2.26.61,3.4-.12,4.89-.66,9.77-1.26,14.63-.39,1.87-.84,3.73-1.25,5.6a64.82,64.82,0,0,1-2.16,6.9c-.63,2-1.61,3.91-2.43,5.86a57.34,57.34,0,0,1-3.68,4.71,106.09,106.09,0,0,1-12.92,9.84c-1.49,1.12-2.88,2.35-4.31,3.54-1.75,2.08-3.49,4.17-5.2,6.28-1.73,2.71-3.4,5.45-5.09,8.18-1.25,2.48-2.43,5-3.65,7.5C34.53,79.6,33.3,82.82,32,86c-.82,2.28-1.5,4.61-2.28,6.9-.47,1.33-.31,2.77-.64,4.13-.55.67-1.63,1-1.59,2-1.31-.27-2.43,1.66-3.59.62.72-1.89-2.38-2.8-1.57-4.65,0-.88.94-1.16,1.49-1.67l-.42-.78c.44-1.22.89-2.44,1.36-3.65.44-1-.28-1.92-.44-2.87a4.05,4.05,0,0,1,2.53-.75,22,22,0,0,1,.65-2.81c1.34-3.31,2.66-6.61,4-9.92.37-.88.41-1.84.7-2.73.32-.56,1-.72,1.53-1a10,10,0,0,0,2.41-2.24c.89-.72.4-2,.46-3-.28-.45-.92-.57-1.36-.86,1.25-2.51,2.88-4.82,4.31-7.23a63,63,0,0,1,5.56-8.15c1.85-2,3.52-4.06,5.5-5.88,3.5-3.87,6.9-7.84,10.29-11.8,3.2-4.73,6.31-9.52,9.49-14.27,2-2.83,3.21-6.14,4.82-9.21,1-2,1.31-4.19,2-6.26"/>
    <path d="M54.13,51.82c.92-.68,1.94-1.19,2.91-1.78,2.3,3.64,4.52,7.33,6.81,11,.37.57.6,1.2.94,1.78a8.13,8.13,0,0,0-1.35.77,10.54,10.54,0,0,0,0,2.51,30.58,30.58,0,0,0,2.11,2.3c.67.66,1.84.68,2.3,1.56a17.65,17.65,0,0,0,.89,3.2c1.25,3.1,2.49,6.2,3.75,9.29a20.2,20.2,0,0,1,.67,2.89,4.06,4.06,0,0,1,2.54.75,11.11,11.11,0,0,0-.59,2.37c.45,1.4,1,2.76,1.51,4.15l-.42.78c.55.51,1.45.79,1.49,1.67.8,1.85-2.29,2.76-1.58,4.64-1.16,1-2.27-.88-3.58-.61,0-1-1-1.36-1.59-2-.33-1.36-.17-2.8-.64-4.13-.79-2.29-1.47-4.62-2.28-6.9-1.3-3.16-2.53-6.35-3.87-9.5-1.23-2.52-2.42-5.07-3.69-7.57q-2.48-4-5-8c-1.55-2-3.22-3.88-4.79-5.85,1.13-1.1,2.3-2.16,3.45-3.23"/>
    <path d="M46.16,71a2.9,2.9,0,0,1,2-1.46,3.28,3.28,0,0,0-.36,2.21c.24.47.76.74.94,1.25A21.72,21.72,0,0,1,50,78.12c-.14,1.61-.4,3.22-.58,4.83-.91.18-1.87.81-2.77.28-1.21-.25-1.77-1.4-2.54-2.23a2.7,2.7,0,0,1-.78-1.22,19.32,19.32,0,0,1,.17-5.58c.84-1.1,2.08-1.89,2.69-3.17"/>
    <path d="M52.83,69.57c.68.27,1.5.47,1.84,1.18.62,1.51,2.19,2.33,2.93,3.7a17.81,17.81,0,0,1,0,5.69c-1,1.17-1.81,2.81-3.45,3.18-.85.38-1.69-.24-2.52-.37-.19-1.61-.45-3.22-.59-4.83A21.72,21.72,0,0,1,52.25,73c.18-.51.7-.78.94-1.25a3.23,3.23,0,0,0-.36-2.21"/>
    <path d="M39.72,79.38a5,5,0,0,1,2.07-2.31A5.9,5.9,0,0,0,43,82.34a8.78,8.78,0,0,1,1,2.52,4.09,4.09,0,0,1,.07,3c-.8,1.4-2.4,2.88-4.12,2.19a9.78,9.78,0,0,1-2.51-3.35,4.32,4.32,0,0,1,.13-3.35,21.76,21.76,0,0,1,2.16-3.93"/>
    <path d="M59.21,77.07a4.78,4.78,0,0,1,2,2.25,22.46,22.46,0,0,1,2.2,4,4.32,4.32,0,0,1,.13,3.35A9.78,9.78,0,0,1,61.06,90c-1.7.68-3.27-.76-4.08-2.12-.73-1.66.15-3.36.68-4.93,1.19-1.7,2.28-3.76,1.55-5.89"/>
    <path d="M46.31,86.09c1.94-1,4.29-1.65,6.41-.8.79.41,2,.39,2.32,1.33.66,1.29,1.34,2.57,2,3.83.85,1.31,2.39,1.78,3.77,2.29a3.17,3.17,0,0,1,1.45,1.31,9.22,9.22,0,0,1-3.62,3.83,3.23,3.23,0,0,1-2.29.11c-2.41-.51-4.8-1.49-7.29-1.08-1.77.4-3.51.88-5.28,1.24-1.47.14-2.5-1-3.54-1.85a12.19,12.19,0,0,1-1.56-2.25c1-1.9,3.69-1.52,4.94-3.23,1-1.47,1.67-3.22,2.66-4.73"/>
  </symbol>
  <symbol id="rogue" viewBox="0 0 100 100" rel="img">
    <title>Rogue</title>
    <path d="M48.89.27a5,5,0,0,1,3.17,0c.17,1.61.29,3.22.41,4.83.17,1-1.25,1.37-1.38,2.28.65,1.28,2,2.33,1.63,3.93a22.42,22.42,0,0,0,4.42-.35q5.55-3.27,11.07-6.58a8.7,8.7,0,0,1,2.37-.55c.83-.11,1.74-.5,2.5,0C75.92,5,78.82,6,81.69,7.13c3,.92,6,1.73,9,2.62A34.18,34.18,0,0,0,87.82,12c-2.36,2.3-4.74,4.58-7.09,6.88a4.79,4.79,0,0,1-2.29.9c-1.74.47-3.5.89-5.22,1.4-3.64,1.34-7.27,2.7-10.9,4.05a4.4,4.4,0,0,1-3.46-.48c-1.86-1-3.6-2.38-5.73-2.76,0,.9.11,1.81.06,2.72-.39,3.92-.9,7.83-1.24,11.76.94-.07,1.87-.2,2.8-.29,1.79-.15,3.39-1.1,5.15-1.41a33.67,33.67,0,0,1-2.23,4.75c-.66-.56-1.15-1.3-1.85-1.81a5.53,5.53,0,0,0-2.31.28c.12,1.22.25,2.43.38,3.65,0,.63.78,1,.66,1.68-.25,1.76-.09,3.54-.23,5.31-.46,13.92-1,27.84-1.53,41.76-.53,3.23-1.17,6.44-1.82,9.65-.72-3.18-1.35-6.39-1.94-9.6q-.84-18.27-1.73-36.54c-.14-3.63-.24-7.27-.51-10.88,1.09-1.43.71-3.35,1-5a11.23,11.23,0,0,0-2.15-.29c-.82.45-1.3,1.31-2,1.91a41.53,41.53,0,0,1-2.26-4.71c1.54.24,2.95,1,4.47,1.25,1.16.14,2.33.26,3.5.32C49,32.69,48.48,29,48,25.21a24.31,24.31,0,0,1,0-3.62,19.91,19.91,0,0,0-6.59,3A4.53,4.53,0,0,1,37,24.9Q31.88,23,26.77,21.12c-2.13-.6-4.27-1.15-6.41-1.7-1-.24-1.57-1.21-2.33-1.83C15.14,15,12.6,11.91,9.31,9.75L15,8.12c4-1.06,7.86-2.73,11.76-4.18.89-.66,2-.23,2.95-.08a6.38,6.38,0,0,1,2.24.57c3.25,2,6.51,3.87,9.77,5.82a4.2,4.2,0,0,0,2.14.9c1.51,0,3,.15,4.51.2a8.13,8.13,0,0,1,.11-1.64c.36-.89,1.17-1.52,1.51-2.42-.36-.85-1.63-1.2-1.47-2.26.15-1.58.22-3.18.4-4.76M31.11,13.1c-1.28.65-2.61,1.18-3.86,1.88,3,1.05,6,2,9,3a6.72,6.72,0,0,0,3.12,0C37,16.35,34.45,14.87,32,13.28c-.26-.17-.59-.38-.9-.18M68.58,13c-2.64,1.68-5.32,3.29-7.92,5a6.62,6.62,0,0,0,3.25,0c2.94-1.06,6-1.91,8.87-3-1.39-.7-2.81-1.32-4.2-2"/>
  </symbol>
  <symbol id="sorcerer" viewBox="0 0 100 100" rel="img">
    <title>Sorcerer</title>
    <path d="M49.71,0c.24,0,2.87,17.45,4.54,22.77,1.3,4.13,2.57,8.28,3.92,12.41a120.48,120.48,0,0,0,5.39,13A91.85,91.85,0,0,1,70.65,73.6c1,7-2.54,15.84-7.36,20.79A19,19,0,0,1,43,98.73c-6.79-2.66-11-9.55-12.76-16.37a26.94,26.94,0,0,1-.84-10.29,79.24,79.24,0,0,1,2.53-12.34A82.18,82.18,0,0,1,36.25,48.4a117.08,117.08,0,0,0,5.39-12.46A129.86,129.86,0,0,0,46.47,18.1C47,15,49.84,2.86,49.71,0c.27,0,.12,2.59,0,0M48.5,66.28c-.14,2.34-1.71,1.86-2.91,4.9-.44-1.56.88-4.83-.17-6.69A8.53,8.53,0,0,1,43.49,68a9.75,9.75,0,0,0-1.83,5.61,8.38,8.38,0,0,0,1,3.38,8.65,8.65,0,0,1,.51,3.4c-.38-1-.94-1.45-2.35-1.48-.82-.16-.85-1.59-.47-2.4-1.16.24-1.23,3-1.14,3.61.28,1.91,1.4,3,2.53,4.52,1,1.28,1.51,2.76,3,3.57,1.74,1,3.4,1.55,5.21,1.08.42-.11.48.42,2.1.48.92,0,1.39-.76,1.56-1.77a13.51,13.51,0,0,0,4.62-2.12c2.11-1.89,1.54-7.42.19-9,.44,2.06-1.15,1.94-.53,3.32.19,1.25-1.9.61-2.73,1.12-.78.84-.57,1.39-1.11,2.34-.64-1.4.4-2.68.94-3.91A9,9,0,0,0,56.12,75a7.14,7.14,0,0,0-1.42-4.19,6.07,6.07,0,0,1-1.23-4.08c-1.6.44.44,7-1.35,8.87-1.63-1.72-.26-6.78-.35-8.36a16.07,16.07,0,0,0-1.63-6.89A17.19,17.19,0,0,1,48.7,57c-.31-1.23-.59-3.47-.21-4-1.43,2.07-.84,5.77-.4,7a22,22,0,0,1,.41,6.35"/>
  </symbol>
  <symbol id="warlock" viewBox="0 0 100 100" rel="img">
    <title>Warlock</title>
    <path d="M32.81,37.77a5.9,5.9,0,0,1,.9-.22,4.48,4.48,0,0,0,2-.82,1.51,1.51,0,0,0,.62-1.21c0-.28,0-.56,0-.87a4.81,4.81,0,0,1,.76,0,4.92,4.92,0,0,0,1.83-.1,12.69,12.69,0,0,0,3.17-1.22,7.14,7.14,0,0,0,1.11-.7c.72-.53,1.43-1.07,2.13-1.63.32-.26.6-.56.9-.84a1.81,1.81,0,0,1,.32-.16c0,.26-.06.45-.08.63,0,.45.1.63.55.61a1.13,1.13,0,0,0,.49-.1A6.72,6.72,0,0,0,50,29.56a6.77,6.77,0,0,0,2.44,1.57.83.83,0,0,0,.35.1c.48.06.85,0,.71-.73,0-.13,0-.27,0-.43a.9.9,0,0,1,.68.42,17,17,0,0,0,2.91,2.32,10.72,10.72,0,0,0,3.31,1.57,5.1,5.1,0,0,0,2.68.26,1.86,1.86,0,0,1,.41,0l.22,0c0,.19,0,.37,0,.54a1.84,1.84,0,0,0,1,1.78,10.27,10.27,0,0,0,2.32.74l.22.07a6.75,6.75,0,0,0-1.2.38,38.29,38.29,0,0,0-5.24,3.18q-1.92,1.5-3.76,3.09a6.2,6.2,0,0,0-1,1.2.77.77,0,0,1-.85.46,3.31,3.31,0,0,0-3.07,1.36,1.15,1.15,0,0,1-.77.48c-.51.07-.72.48-.85,1s-.31.53-.72.4a.55.55,0,0,1-.26-.24,2.43,2.43,0,0,1-.13-.38,1.1,1.1,0,0,0-.93-.77.85.85,0,0,1-.48-.28,3.56,3.56,0,0,0-3.49-1.51c-.1,0-.21-.06-.31-.1a.24.24,0,0,1-.09-.11c-.73-1.5-2.14-2.35-3.35-3.35A27.91,27.91,0,0,0,35,38.73a1.32,1.32,0,0,1-.2-.12,3.27,3.27,0,0,0-2-.73ZM50,43.27c-.53-1.33-1-2.59-1.51-3.86a.8.8,0,0,1,0-.48c.18-.72.37-1.43.56-2.18a26.53,26.53,0,0,0-3.7-1.11.56.56,0,0,0-.7.33,6,6,0,0,0-.61,3.73,5.68,5.68,0,0,0,1.82,3.4,6,6,0,0,0,9.48-7c-.23-.46-.32-.52-.82-.4-.69.17-1.37.37-2,.57s-1.06.34-1.59.52c.15.56.28,1.07.44,1.57a2.46,2.46,0,0,1-.08,1.77C50.83,41.11,50.45,42.16,50,43.27Z"/>
    <path d="M46.26,53.17l3.52-.94a.78.78,0,0,1,.4,0l3.6,1c-.12.62-.22,1.22-.33,1.82-.3,1.52-.6,3-.89,4.55-.2,1-.39,2-.58,3a7.62,7.62,0,0,0-.14.94c-.05.91-.06,1.82-.1,2.73-.08,1.5-.18,3-.26,4.49,0,.71-.08,1.42-.1,2.13-.07,1.58-.13,3.15-.2,4.73,0,1.12-.11,2.24-.17,3.36-.08,1.45-.18,2.9-.26,4.35,0,.71-.07,1.42-.1,2.14-.07,1.55-.13,3.11-.19,4.67-.06,1.17-.13,2.33-.18,3.5-.07,1.39-.12,2.79-.19,4.18A1,1,0,0,1,50,100H50c0-.14,0-.28,0-.42-.07-1.7-.12-3.39-.19-5.09s-.18-3.63-.27-5.44c-.06-1.23-.12-2.46-.19-3.68s-.11-2.39-.18-3.59c-.08-1.42-.18-2.84-.26-4.26,0-1.12-.06-2.25-.12-3.37-.06-1.28-.16-2.56-.24-3.85,0-.63-.07-1.27-.1-1.9,0-.9,0-1.79-.1-2.69a25.73,25.73,0,0,0-.51-4.62c-.38-1.63-.63-3.3-.95-5-.16-.85-.35-1.7-.52-2.55C46.27,53.46,46.27,53.32,46.26,53.17Z"/>
    <path d="M47.32,25.73c.12-.69.23-1.34.35-2,.23-1.24.47-2.48.7-3.72s.46-2.47.68-3.71a17.34,17.34,0,0,0,.33-2.69c0-1.58.16-3.15.25-4.72V8.63c.06-1.47.13-2.94.18-4.41,0-1.21.07-2.43.11-3.64V0H50a1.38,1.38,0,0,1,.06.26c0,1.2.06,2.4.1,3.6.06,1.66.12,3.33.2,5,0,1.12.1,2.24.17,3.35a29.26,29.26,0,0,0,.51,4.67c.35,1.55.57,3.13.85,4.69.23,1.23.47,2.45.7,3.67,0,.15,0,.3.05.5a18.15,18.15,0,0,0-1.8.79,1.6,1.6,0,0,1-1.72,0C48.59,26.22,48,26,47.32,25.73Z"/>
    <path d="M62.16,73.93,54.82,55.48l.31-.19,3.19-1.68c.4-.2.61-.11.69.34.14.82.26,1.64.39,2.45.17,1.05.35,2.1.52,3.16l.48,3c.17,1,.35,2.08.52,3.11l.39,2.5.51,3.06c.13.82.27,1.63.4,2.45a1.48,1.48,0,0,1,0,.21Z"/>
    <path d="M37.78,73.91c.07-.5.14-1,.22-1.49.17-1.06.35-2.11.52-3.16s.32-2,.49-3l.51-3.15c.17-1,.35-2,.52-3.07l.48-3c.16-1,.31-2,.48-3,.09-.49.28-.58.71-.35l3.5,1.83L37.86,73.93Z"/>
    <path d="M61.79,49.36l2,1.59L67,53.43a1.06,1.06,0,0,1,.33.46Q69,58.35,70.58,62.8a1.54,1.54,0,0,1,0,.19c-.27-.3-.5-.54-.72-.8-1.13-1.3-2.25-2.61-3.38-3.92L63.8,55.2c-1-1.14-2-2.29-3-3.42a.39.39,0,0,1-.07-.48c.19-.41.32-.85.52-1.25A4.79,4.79,0,0,1,61.79,49.36Z"/>
    <path d="M29.4,62.91c.39-1.08.78-2.16,1.18-3.24.66-1.84,1.36-3.68,2-5.54a2.06,2.06,0,0,1,.8-1l4.56-3.57c.09-.07.18-.11.26-.17.54.31.6.92.89,1.38.39.64.12,1.05-.31,1.52-1,1.09-1.95,2.23-2.93,3.35-.71.82-1.44,1.63-2.16,2.45L31.5,60.62c-.49.57-1,1.13-1.49,1.7l-.54.62Z"/>
    <path d="M42.25,29c-.63-.13-1.26-.24-1.89-.38-1.11-.25-2.21-.53-3.32-.78a.52.52,0,0,1-.44-.34c-.75-2.24-1.5-4.48-2.2-6.77l7.92,8.12Z"/>
    <path d="M65.68,20.72,64.6,23.9c-.38,1.13-.77,2.26-1.13,3.4a.66.66,0,0,1-.55.5c-1.48.32-2.94.69-4.41,1a1.91,1.91,0,0,1-.82,0l7.93-8.13Z"/>
  </symbol>
  <symbol id="wizard" viewBox="0 0 100 100" rel="img">
    <title>Wizard</title>
    <path d="M38.56,97.68l.27.31a.8.8,0,0,1-.95,0c-1.79-.84-3.57-1.69-5.38-2.48-3.9-1.73-7.82-3.42-11.74-5.13L20,90.07l.29-.35c.49-.56,1-1.11,1.48-1.66.31-.34.64-.67,1-1A6.06,6.06,0,0,0,24.27,85c.73-1.71,1.49-3.41,2.21-5.12a.69.69,0,0,1,.63-.51,6.78,6.78,0,0,0,1.1-.16,5.84,5.84,0,0,0,3.92-3.09c.32-.6.6-1.22.92-1.89l.65.17A29.89,29.89,0,0,0,39,75.74a.53.53,0,0,0,.57-.22,3.06,3.06,0,0,1,1.29-1,2.28,2.28,0,0,0,.53-.3c.13-.11.29-.31.27-.44a2.34,2.34,0,0,1,.68-1.86,14.82,14.82,0,0,0,.87-1.21.88.88,0,0,1,.68-.41c.55-.08,1.1-.15,1.65-.25a5.44,5.44,0,0,0,1.11-.33c1.82-.8,3.64-1.64,5.46-2.45a1.79,1.79,0,0,0,.85-.76c.76-1.26,1.52-2.53,2.35-3.76.68-1,1.47-1.94,2.18-2.93.59-.83,1.11-1.71,1.7-2.54s1.28-1.72,1.92-2.57c.18-.23.4-.44.56-.69a2.59,2.59,0,0,1,1.49-1.08c.54-.17,1.07-.4,1.61-.6s.42-.12.74.2A1.1,1.1,0,0,1,65.63,54c-.7,1.32-1.34,2.68-1.95,4a13.94,13.94,0,0,0-.57,1.8,4.29,4.29,0,0,0-.2,1.09,2.83,2.83,0,0,0,.24-.25c.48-.65,1-1.3,1.43-2a6.15,6.15,0,0,0,.6-1.06c.59-1.32,1.14-2.65,1.73-4a1,1,0,0,0,0-.85,2.3,2.3,0,0,1-.09-1.68c.42-1.09.79-2.2,1.12-3.31a8.41,8.41,0,0,1,1.16-2.07c.53-.85,1.14-1.65,1.64-2.51a10.6,10.6,0,0,1,2.88-3.14l.9.79a9.2,9.2,0,0,0-.69,2.14l.86-1.33c.5-.78,1-1.6,1.52-2.33A11,11,0,0,1,77.76,38a.4.4,0,0,1,.36,0c.34.13.67.29,1.07.47-.54,1.3-1.27,2.48-1.85,3.73S76.15,44.65,75.63,46c.13-.1.29-.18.41-.29.8-.8,1.62-1.58,2.38-2.41.4-.44.78-.16,1.17-.09s.34.36.38.65a1.88,1.88,0,0,1-.3,1.36A25.49,25.49,0,0,0,76.76,51c-.62,1.78-1.21,3.58-2,5.3-1,2.32-2.21,4.59-3.33,6.88-.7,1.42-1.45,2.83-2.14,4.27a8.9,8.9,0,0,0-.54,1.68,1.49,1.49,0,0,1-.43.75c-.39.38-.76.77-1.16,1.12a1.64,1.64,0,0,1-.62.34c-.56.16-1.14.31-1.72.43a7,7,0,0,0-2.15.83c-1.67,1-3.36,1.94-5,3a16.13,16.13,0,0,0-2,1.42A11,11,0,0,1,53,78.59l-.53.26.24.54c-.34.33-1,.08-1.12.7.46.07.69.75,1.38.42a1.76,1.76,0,0,1,0,.28,1,1,0,0,0,.3,1.16c.24.23.37.47.06.78,0-.08,0-.14,0-.2,0-.27-.25-.36-.47-.4s-.34.2-.39.39A30.28,30.28,0,0,1,51,86.33a2,2,0,0,1-.65.82,6.53,6.53,0,0,0-1.89,2.22,16.41,16.41,0,0,0-2,5.28A18.72,18.72,0,0,0,46.21,97a11.3,11.3,0,0,0,.22,1.82c.08.49,0,.73-.5.85s-1,.22-1.56.31a1.36,1.36,0,0,1-.49,0,19.43,19.43,0,0,1-4.31-1.88c-.3-.18-.63-.31-.94-.46Z"/>
    <path d="M53.88,50.51a4.2,4.2,0,0,1,.35.57c.06.13.37.33,0,.43l.1.36c-.38.29-.38.29,0,1l-.3.52a2.66,2.66,0,0,1-1.14-1.09,3.78,3.78,0,0,1-.52-1.91,21.85,21.85,0,0,1,1-5.83,5.28,5.28,0,0,1,.95-1.62,4.51,4.51,0,0,0,.67-1.54,18.37,18.37,0,0,0,.35-4.3,2.92,2.92,0,0,0-.31-1.45,5.74,5.74,0,0,0-2-2.41c-.5-.32-.93-.74-1.43-1.06s-1-.54-1.5-.83a2.47,2.47,0,0,1-.68-.46,4.69,4.69,0,0,0-1.54-1.07l-1.26-.58a3.55,3.55,0,0,1-1.73-1.73c-.32-.65-.67-1.28-.94-1.95a4.12,4.12,0,0,1-.33-1.34c-.08-1.55-.17-3.1-.12-4.65a7.94,7.94,0,0,1,1.7-4.84,5.8,5.8,0,0,1,1.36-1.52c.24-.14.47-.29.7-.44a6.41,6.41,0,0,0,1-.67,3.29,3.29,0,0,1,1.23-.67,12.86,12.86,0,0,1,4.2-.71c.92,0,1.85,0,2.77.07a3.5,3.5,0,0,1,1.78.59c.7.47,1.39,1,2.07,1.48a3.14,3.14,0,0,1,1.08,1.46l.89,2.61a3.47,3.47,0,0,1,.16.41,3.19,3.19,0,0,1,.14.91c0,.59-.15,1.17-.21,1.76a7.69,7.69,0,0,1-.76,2.86c-.24.46-.54.88-.82,1.31a1.21,1.21,0,0,0-.1.14,3.63,3.63,0,0,1-2,1.69c-.08.05-.19.11-.26.09-.36-.1-.59.14-.86.29s-.52.36-.76,0c0-.05-.17,0-.26,0l-.61,0a4.58,4.58,0,0,1-3.54-1.4,3.49,3.49,0,0,0-.49-.45,2.61,2.61,0,0,1-1-2,4.73,4.73,0,0,1,1.78-4.37,1.55,1.55,0,0,1,1-.36,8.41,8.41,0,0,1,1.33.08,1,1,0,0,1,.81.87,3.09,3.09,0,0,1,0,1.54,2,2,0,0,1-.26.44,1.9,1.9,0,0,0-1.21-.89c-.31-.07-.66-.27-.94.05s-.91.69-.76,1.38a6.55,6.55,0,0,1,0,.89A1.09,1.09,0,0,0,54,23a.4.4,0,0,1,.26,0,2,2,0,0,0,1.29-.21l2-.76a.47.47,0,0,1,.15-.06c.63.05.88-.41,1.09-.86A3,3,0,0,0,59.07,20a15.7,15.7,0,0,0,0-1.94,2.51,2.51,0,0,0-2-2.64,4.82,4.82,0,0,0-1.19-.23c-1.09,0-2.18,0-3.28,0a5.82,5.82,0,0,0-3.85,1.59,2.23,2.23,0,0,0-.88,1,.05.05,0,0,1,0,.05,2.91,2.91,0,0,0-.7,2.81c.05.41.15.8.17,1.21A15.44,15.44,0,0,0,48,24.72a5.41,5.41,0,0,0,1.16,2.06,5.5,5.5,0,0,0,1.47,1.33,27,27,0,0,1,2.43,1.55A8.19,8.19,0,0,1,55,31.4c.42.56.91,1.06,1.37,1.6a1.62,1.62,0,0,1,.27.41,10.21,10.21,0,0,1,1,3.6c0,1.44.07,2.89.07,4.33,0,.49-.18,1-.22,1.48a5.34,5.34,0,0,1-.8,2.08,2.87,2.87,0,0,1-.4.46c-.7.84-1.4,1.67-2.08,2.53a1,1,0,0,0-.17,1.36,2.08,2.08,0,0,1,.21.68C54.36,50.28,54.29,50.37,53.88,50.51Z"/>
    <path d="M55.63,61.11c-1.1,1.63-2.19,3.25-3.31,4.86a1.23,1.23,0,0,1-.54.44c-.92.42-1.87.79-2.79,1.23a16.07,16.07,0,0,0-2.06,1.17A4.69,4.69,0,0,1,45,69.6c-.58.07-1.15.22-1.81.35.08-.2.12-.33.18-.46.34-.67.68-1.35,1-2a1.89,1.89,0,0,1,.36-.48c.8-.77,1.6-1.54,2.41-2.29a2,2,0,0,1,.6-.38c1-.39,2-.8,3-1.15A33.68,33.68,0,0,0,55,61.26l.53-.25Z"/>
    <path d="M53.05,3.44A4.64,4.64,0,0,1,53,0c.61.08.6.08.71.69a5.25,5.25,0,0,1,0,2.09C53.63,3.34,53.64,3.35,53.05,3.44Z"/>
    <path d="M38.06,14c0,.5-.2.63-.54.46s-1-.41-1.16-1a.68.68,0,0,1,0-.27.82.82,0,0,1,.21-.46c.07-.06.31,0,.43.13a5.25,5.25,0,0,1,.81.67A2.37,2.37,0,0,1,38.06,14Z"/>
    <path d="M42.28,3.3A2.45,2.45,0,0,1,43.6,4.89c.06.25.14.59-.21.77C42.35,4.9,41.94,4,42.28,3.3Z"/>
    <path d="M64,3.17c.62.68.2,1.7-.85,2.09A1.7,1.7,0,0,1,64,3.17Z"/>
    <path d="M68.42,12.31c-.24-.64-.13-1,.38-1.18a6.81,6.81,0,0,1,.83-.22c.34.52.29.85-.19,1.07A6.07,6.07,0,0,1,68.42,12.31Z"/>
  </symbol>
  <symbol id="creature" viewBox="0 0 100 100" rel="img">
    <title>Creature</title>
    <path d="M12.39,23.33a17.07,17.07,0,0,1,4.8-14.2C21,5.27,26.08,2.94,33.61,3.34c11.9.63,17.61,8.8,17.61,17.6,0,4.51-2.42,10.66-5.71,14.71q-.32-.33-.63-.63c-2.17-2.11-5.4-4.65-7.5-7.58,4-5.93,2.3-15.25-4.94-15.25-4.56,0-8.29,4.71-6.82,10.57a19.71,19.71,0,0,0-.47,8.49,15.22,15.22,0,0,1-8-9.6,14.1,14.1,0,0,0-1.12,10,12.84,12.84,0,0,1-3.63-8.31m3,14.45c.46-1.82-3.14-4.92-4.48-5.51a20.69,20.69,0,0,1,7.4.74,8.72,8.72,0,0,1-1-7.12C20,32.35,29.65,33.39,32,38.75c-.34-2.31-2.52-4.91-5.06-6.43-1.37-3.51-.35-10,1.31-11.78C27.71,29.86,41,35.19,43.77,42,42.15,36.16,36,32.49,33,29a9.37,9.37,0,0,1,.83-7.55c-.31,6.25,6.42,11.12,10,14.61,4.24,4.11,5.45,7.75,4.87,10.71a2.52,2.52,0,0,1,2,2.68,5.13,5.13,0,0,0,3.07-2.82c.67,4.63-2,9.55-5.11,11a4.27,4.27,0,0,0-.57-3.9c-1.38-1.67-5.27-1.69-6.59-1.6,0,0,1.61-2.39,1-3.6-.79-1.51-8.42-.85-11.83.39a14.94,14.94,0,0,1,4.87.59c-.53.79-1.93,4.15-.93,5.16S36.75,54,36.75,54s-1.19,3.67-.34,4.53,2.68.24,2.68.24c-1.13,2.89-5.56,4.87-8.67,4.87a6.61,6.61,0,0,0,3.21-3.51,8.78,8.78,0,0,1-3.74.49c1-.4,3-3,2.38-5.89C31.36,50.49,25.45,50,22.48,52a11.68,11.68,0,0,1,6.09-6.38,30.33,30.33,0,0,0-4.52-1.15c1.89-1.55,6.64-2.81,9.05-2.68-3.68-.95-10.44.23-13.53,3.89a23.17,23.17,0,0,1,4.52.79c-4.24.77-10,4.72-11.72,6.58.45-2.46,1.14-4.53.56-6-.81-2.07-3.34-2.95-8.37-1.91,3.4-3.4,10.35-5.51,10.81-7.35m23.12,3.28c.68,2.37,1.58,4.54,4.44,4.54a7.68,7.68,0,0,0-4.44-4.54m45.69-3.25c-5,0-7.82,2.46-8.54,1.35-.91-1.41,3.38-3.5,3.38-3.5-5.9.25-10.19,7.19-12,6.33-1.07-.52,1.59-3.87,1.59-3.87-5.4,3.13-9.92,9.77-10.86,13.81,5-6.07,14.61-10.43,20.87-9.52-11.05.55-20.5,10.32-25,16.68a7.29,7.29,0,0,1,2.49,1.3c1,.83,2.56,2.09,4.19,3.43A57.14,57.14,0,0,1,69.2,49.48c4-4.54,10.87-5,14.49-2.21,2.33-2.11,10.38-4.1,14.61-2.88-2.57-2.82-8.06-6.58-14.12-6.58m-3.36,29.3c2.16.36,5.19,2.66,5.19,6,0,5.35-6.67,7-10.37,6.17,3.92-2.73,3.4-10.55-1.31-13.35,1.59,4.38-3.2,8.75-7.85,4.92-2.59-2.12-8.58-7.11-11.25-9.26s-5.79-.9-7-1.83c-1.41-1.07-.52-4.07-2.42-5.2-1.61-.92-3.19-.41-5.07-1-1.69-.56-3-1.88-2.74-3.65a4.57,4.57,0,0,0,.52,5c1.28,1.48,3.41,2.39,4.29,4,1.14,2.1-.79,5,4.29,9,2.42,1.9,6.18,5,8.63,7.17,4.12,3.61,1.93,8.13,2.46,12.08a9.58,9.58,0,0,0,6.8,7.8A7.18,7.18,0,0,1,65,85.08C65.17,88.94,68,95,74.28,96.65c6.73,1.79,13.88-2,15.38-4.71-2.61,1.17-7.49-.09-9.51-2,7.9,1.11,14.9-4.37,14.9-11.38S88.4,66.4,80.82,67.11M47,69.62C44.52,74.3,38.4,81.06,32.23,81.06c-10.93,0-16.33-15.78-3.36-28.3a5.8,5.8,0,0,0-2.33-.45c-3.51,0-6.19,3-6.19,3a12.11,12.11,0,0,1,2.29-7c-3.71,1.3-10.33,6-12,8.27,0-5,1.8-8,.72-9.48a1.32,1.32,0,0,0-.18-.22S2.22,52.85,1.35,62.53a7,7,0,0,1,2.2-2.05c.67-.26,1.26.08.62,2.05-.25.77-6.11,16.62,5.41,27.58,0,0-1.26-3.22-.5-4.2.37-.47.85-.51,1.52.34.49.64,1,1.29,1.56,1.91h0a23.31,23.31,0,0,0,3.14,3A23.67,23.67,0,0,0,28.76,95.5c14.76,0,22.34-10.55,26.43-19-.14-.14-.29-.29-.46-.44-2.14-1.88-5.37-4.57-7.76-6.47"/>
  </symbol>
</svg>
